<svg width="250" height="250" viewBox="0 0 250 250" fill="none" xmlns="http://www.w3.org/2000/svg">
<path d="M245.547 131.367L191.406 106.445V35.0391C191.381 33.541 190.926 32.0816 190.095 30.835C189.264 29.5883 188.092 28.607 186.719 28.0078L128.125 1.05474C127.097 0.578797 125.977 0.332275 124.844 0.332275C123.71 0.332275 122.591 0.578797 121.562 1.05474L62.9687 28.0078C61.6126 28.6354 60.465 29.6388 59.6618 30.8989C58.8587 32.159 58.4338 33.6229 58.4375 35.1172V106.523L4.53127 131.367C3.17518 131.995 2.02751 132.998 1.22438 134.258C0.421241 135.518 -0.00367363 136.982 2.39276e-05 138.477V214.883C-0.00367363 216.377 0.421241 217.841 1.22438 219.101C2.02751 220.361 3.17518 221.364 4.53127 221.992L63.125 248.945C64.1534 249.421 65.273 249.668 66.4062 249.668C67.5394 249.668 68.6591 249.421 69.6875 248.945L125 223.476L180.312 248.945C181.341 249.421 182.46 249.668 183.594 249.668C184.727 249.668 185.846 249.421 186.875 248.945L245.469 221.992C246.825 221.364 247.972 220.361 248.775 219.101C249.579 217.841 250.003 216.377 250 214.883V138.477C250.01 136.991 249.597 135.533 248.808 134.273C248.02 133.014 246.888 132.006 245.547 131.367ZM183.672 156.68L143.75 138.477L183.672 120.117L223.594 138.477L183.672 156.68ZM175.859 106.367L125.547 129.805V69.7266C126.488 69.6849 127.415 69.4731 128.281 69.1016L175.781 47.3047V106.523L175.859 106.367ZM125 16.6797L164.922 35.0391L125 53.3984L85.1562 35.0391L125 16.6797ZM66.4062 120.039L106.328 138.398L66.4062 156.68L26.4844 138.477L66.4062 120.039ZM117.187 209.805L66.4062 233.242V173.164C67.4965 173.099 68.5611 172.806 69.5312 172.305L117.031 150.43L117.187 209.805ZM234.375 209.805L183.906 233.242V173.164C184.89 173.058 185.844 172.767 186.719 172.305L234.219 150.43L234.375 209.805Z" fill="black"/>
</svg>
