<svg width="250" height="250" viewBox="0 0 250 250" fill="none" xmlns="http://www.w3.org/2000/svg">
<path d="M80.3571 0H0V80.3571H17.8571V17.8571H80.3571V0Z" fill="black"/>
<path d="M0 169.643V250H80.3571V232.143H17.8571V169.643H0Z" fill="black"/>
<path d="M250 80.3571V0H169.643V17.8571H232.143V80.3571H250Z" fill="black"/>
<path d="M169.643 250H250V169.643H232.143V232.143H169.643V250Z" fill="black"/>
<path d="M209.733 72.59L129.375 27.9472C128.018 27.1635 126.479 26.751 124.911 26.751C123.344 26.751 121.804 27.1635 120.447 27.9472L40.0898 72.59C38.7438 73.3879 37.6312 74.5255 36.8634 75.8888C36.0956 77.2521 35.6995 78.7933 35.7148 80.3579V169.644C35.7175 171.226 36.1406 172.779 36.9407 174.144C37.7408 175.508 38.8892 176.636 40.2684 177.411L120.626 222.054C121.983 222.838 123.522 223.251 125.09 223.251C126.657 223.251 128.197 222.838 129.554 222.054L209.911 177.411C211.257 176.614 212.37 175.476 213.138 174.113C213.905 172.749 214.302 171.208 214.286 169.644V80.3579C214.283 78.7758 213.86 77.2228 213.06 75.8579C212.26 74.493 211.112 73.3653 209.733 72.59ZM125 45.8936L186.965 80.3579L125 114.822L63.0362 80.3579L125 45.8936ZM53.5719 95.5365L116.072 130.269V199.108L53.5719 164.376V95.5365ZM133.929 199.108V130.269L196.429 95.5365V164.376L133.929 199.108Z" fill="black"/>
</svg>
