<svg width="250" height="204" viewBox="0 0 250 204" fill="none" xmlns="http://www.w3.org/2000/svg">
<path d="M148.8 0.797982C164.663 0.798308 180.304 4.52773 194.461 11.6853C208.618 18.8429 220.893 29.2281 230.298 42.0031C239.702 54.778 245.972 69.5848 248.601 85.2287C251.23 100.873 250.144 116.915 245.432 132.063C240.72 147.21 232.513 161.037 221.473 172.429C210.433 183.82 196.871 192.457 181.879 197.643C166.887 202.828 150.886 204.417 135.167 202.28C119.449 200.143 104.453 194.342 91.3887 185.343H8.92687C6.66443 185.342 4.48659 184.483 2.83342 182.938C1.18024 181.394 0.174989 179.279 0.0207807 177.022C-0.133427 174.765 0.574907 172.533 2.00266 170.778C3.43041 169.023 5.47112 167.875 7.71245 167.567L8.92687 167.484L71.6483 167.496C66.9675 161.993 62.8883 156.006 59.4803 149.636L32.6796 149.625C30.4171 149.624 28.2393 148.764 26.5861 147.22C24.933 145.675 23.9277 143.561 23.7735 141.304C23.6193 139.046 24.3276 136.815 25.7554 135.06C27.1831 133.305 29.2238 132.157 31.4652 131.849L32.6796 131.765L52.0509 131.777C49.0899 122.129 47.589 112.092 47.598 102C47.598 77.021 56.6466 54.1612 71.6364 36.5164H20.8092C18.5467 36.5157 16.3689 35.6562 14.7157 34.1116C13.0626 32.5671 12.0573 30.4526 11.9031 28.1954C11.7489 25.9382 12.4572 23.7066 13.885 21.9516C15.3127 20.1966 17.3534 19.0489 19.5948 18.7405L20.8092 18.6572H91.3768C108.253 6.99579 128.287 0.764962 148.8 0.797982ZM148.8 18.6572C126.696 18.6572 105.498 27.4379 89.8677 43.0677C74.2379 58.6975 65.4571 79.8961 65.4571 102C65.4571 124.104 74.2379 145.303 89.8677 160.932C105.498 176.562 126.696 185.343 148.8 185.343C170.904 185.343 192.103 176.562 207.732 160.932C223.362 145.303 232.143 124.104 232.143 102C232.143 79.8961 223.362 58.6975 207.732 43.0677C192.103 27.4379 170.904 18.6572 148.8 18.6572ZM148.836 36.5402C157.438 36.5402 165.955 38.2344 173.902 41.5262C181.849 44.8179 189.07 49.6427 195.152 55.7251C201.235 61.8075 206.06 69.0283 209.351 76.9753C212.643 84.9224 214.337 93.4399 214.337 102.042C214.337 110.643 212.643 119.161 209.351 127.108C206.06 135.055 201.235 142.276 195.152 148.358C189.07 154.441 181.849 159.265 173.902 162.557C165.955 165.849 157.438 167.543 148.836 167.543C131.464 167.543 114.803 160.642 102.519 148.358C90.2352 136.074 83.3342 119.414 83.3342 102.042C83.3342 84.6696 90.2352 68.009 102.519 55.7251C114.803 43.4412 131.464 36.5402 148.836 36.5402ZM162.54 128.384C158.432 130.527 153.753 131.742 148.8 131.742C143.895 131.742 139.275 130.551 135.191 128.455L122.142 141.505C129.762 146.66 138.942 149.684 148.836 149.684C158.765 149.684 167.981 146.648 175.613 141.457L162.54 128.384ZM101.199 102.036C101.199 111.989 104.247 121.24 109.474 128.884L122.487 115.894C120.216 111.611 119.03 106.836 119.035 101.988C119.035 97.0233 120.261 92.3442 122.416 88.2366L109.426 75.2589C104.048 83.1558 101.18 92.4932 101.199 102.048V102.036ZM188.305 75.3422L175.267 88.3794C177.363 92.4513 178.553 97.0828 178.553 101.988C178.553 106.953 177.339 111.632 175.184 115.74L188.257 128.813C193.448 121.181 196.472 111.965 196.472 102.036C196.472 92.1537 193.46 82.9502 188.305 75.3422ZM148.8 90.0939C147.193 90.022 145.589 90.2764 144.083 90.8417C142.577 91.407 141.202 92.2715 140.039 93.3831C138.877 94.4946 137.952 95.8302 137.319 97.3091C136.687 98.7881 136.362 100.38 136.362 101.988C136.362 103.596 136.687 105.188 137.319 106.667C137.952 108.146 138.877 109.482 140.039 110.593C141.202 111.705 142.577 112.569 144.083 113.135C145.589 113.7 147.193 113.954 148.8 113.882C151.862 113.745 154.754 112.432 156.873 110.217C158.991 108.001 160.174 105.054 160.174 101.988C160.174 98.9226 158.991 95.9752 156.873 93.7596C154.754 91.544 151.862 90.231 148.8 90.0939ZM148.836 54.3994C138.906 54.3994 129.691 57.4354 122.047 62.6265L135.025 75.6042C139.144 73.4611 143.835 72.2347 148.8 72.2347C153.812 72.2347 158.539 73.473 162.683 75.6637L175.684 62.6741C167.776 57.2673 158.416 54.3825 148.836 54.3994Z" fill="black"/>
</svg>
