<svg width="112" height="71" viewBox="0 0 112 71" fill="none" xmlns="http://www.w3.org/2000/svg">
<path d="M54.3333 65.7055L53.5406 66.315L54.3333 65.7055ZM45.6667 2.16422L46.0216 3.09912L45.6667 2.16422ZM0.0149499 25.4019C-0.0801911 25.9459 0.283704 26.4641 0.827732 26.5592L9.69318 28.1096C10.2372 28.2048 10.7554 27.8409 10.8505 27.2968C10.9456 26.7528 10.5817 26.2347 10.0377 26.1395L2.15732 24.7614L3.53546 16.881C3.6306 16.3369 3.26671 15.8188 2.72268 15.7237C2.17865 15.6285 1.6605 15.9924 1.56536 16.5364L0.0149499 25.4019ZM110.105 11.0822C103.676 23.9814 93.1518 42.1265 82.4714 54.6906C77.1155 60.9911 71.8122 65.7764 67.0489 67.862C64.6843 68.8973 62.5209 69.2374 60.5761 68.836C58.647 68.4377 56.8089 67.2845 55.1261 65.0959L53.5406 66.315C55.4578 68.8085 57.6877 70.2819 60.1718 70.7947C62.6403 71.3042 65.2351 70.8395 67.8511 69.6941C73.0489 67.4182 78.5956 62.3379 83.9952 55.9859C94.826 43.2449 105.435 24.9374 111.895 11.9742L110.105 11.0822ZM55.1261 65.0959C50.8286 59.5069 49.5865 52.2973 49.8536 44.6191C50.1206 36.9413 51.8893 28.9423 53.4758 21.8633C54.2653 18.3407 55.0122 15.0331 55.4892 12.1444C55.9632 9.27412 56.1909 6.70955 55.8844 4.69936C55.5731 2.65767 54.6635 0.971029 52.7073 0.299955C50.8913 -0.323015 48.4375 0.0427036 45.3118 1.22932L46.0216 3.09912C49.0625 1.94474 50.9421 1.80881 52.0583 2.19174C53.0344 2.52656 53.6561 3.35335 53.9073 5.00082C54.1633 6.67979 53.9847 8.9801 53.516 11.8186C53.0503 14.6387 52.3181 17.8838 51.5242 21.4259C49.9441 28.4765 48.1294 36.6555 47.8548 44.5495C47.5802 52.4431 48.8381 60.1992 53.5406 66.315L55.1261 65.0959ZM45.3118 1.22932C25.4821 8.75707 7.14172 20.0389 0.425276 24.7558L1.57472 26.3925C8.19161 21.7455 26.3846 10.5537 46.0216 3.09912L45.3118 1.22932Z" fill="#4B33E3"/>
</svg>
