<svg width="158" height="56" viewBox="0 0 158 56" fill="none" xmlns="http://www.w3.org/2000/svg">
<g filter="url(#filter0_d_1621_1335)">
<rect x="6" y="3" width="140" height="38" rx="6" fill="#4B33E3"/>
<rect x="6.5" y="3.5" width="139" height="37" rx="5.5" stroke="white" stroke-linecap="round" stroke-dasharray="5 5"/>
</g>
<path d="M42.7275 17.0469V27H41.0117V17.0469H42.7275ZM48.709 17.0469L44.6758 21.8389L42.3789 24.2725L42.0781 22.5703L43.7188 20.5469L46.6172 17.0469H48.709ZM46.8633 27L43.5889 22.2832L44.7715 21.1143L48.9004 27H46.8633ZM51.2178 21.1826V27H49.5703V19.6035H51.1221L51.2178 21.1826ZM50.9238 23.0283L50.3906 23.0215C50.3952 22.4974 50.4681 22.0166 50.6094 21.5791C50.7552 21.1416 50.9557 20.7656 51.2109 20.4512C51.4707 20.1367 51.7806 19.8952 52.1406 19.7266C52.5007 19.5534 52.9017 19.4668 53.3438 19.4668C53.6992 19.4668 54.0205 19.5169 54.3076 19.6172C54.5993 19.7129 54.8477 19.8701 55.0527 20.0889C55.2624 20.3076 55.4219 20.5924 55.5312 20.9434C55.6406 21.2897 55.6953 21.7158 55.6953 22.2217V27H54.041V22.2148C54.041 21.8594 53.9886 21.5791 53.8838 21.374C53.7835 21.1644 53.6354 21.0163 53.4395 20.9297C53.248 20.8385 53.0088 20.793 52.7217 20.793C52.4391 20.793 52.1862 20.8522 51.9629 20.9707C51.7396 21.0892 51.5505 21.251 51.3955 21.4561C51.2451 21.6611 51.1289 21.8981 51.0469 22.167C50.9648 22.4359 50.9238 22.723 50.9238 23.0283ZM57.0625 23.3838V23.2266C57.0625 22.6934 57.14 22.1989 57.2949 21.7432C57.4499 21.2829 57.6732 20.8841 57.9648 20.5469C58.2611 20.2051 58.6211 19.9408 59.0449 19.7539C59.4733 19.5625 59.9564 19.4668 60.4941 19.4668C61.0365 19.4668 61.5195 19.5625 61.9434 19.7539C62.3717 19.9408 62.734 20.2051 63.0303 20.5469C63.3265 20.8841 63.5521 21.2829 63.707 21.7432C63.862 22.1989 63.9395 22.6934 63.9395 23.2266V23.3838C63.9395 23.917 63.862 24.4115 63.707 24.8672C63.5521 25.3229 63.3265 25.7217 63.0303 26.0635C62.734 26.4007 62.374 26.665 61.9502 26.8564C61.5264 27.0433 61.0456 27.1367 60.5078 27.1367C59.9655 27.1367 59.4801 27.0433 59.0518 26.8564C58.6279 26.665 58.2679 26.4007 57.9717 26.0635C57.6755 25.7217 57.4499 25.3229 57.2949 24.8672C57.14 24.4115 57.0625 23.917 57.0625 23.3838ZM58.71 23.2266V23.3838C58.71 23.7165 58.7441 24.0309 58.8125 24.3271C58.8809 24.6234 58.988 24.8831 59.1338 25.1064C59.2796 25.3298 59.4665 25.5052 59.6943 25.6328C59.9222 25.7604 60.1934 25.8242 60.5078 25.8242C60.8132 25.8242 61.0775 25.7604 61.3008 25.6328C61.5286 25.5052 61.7155 25.3298 61.8613 25.1064C62.0072 24.8831 62.1143 24.6234 62.1826 24.3271C62.2555 24.0309 62.292 23.7165 62.292 23.3838V23.2266C62.292 22.8984 62.2555 22.5885 62.1826 22.2969C62.1143 22.0007 62.0049 21.7386 61.8545 21.5107C61.7087 21.2829 61.5218 21.1051 61.2939 20.9775C61.0706 20.8454 60.804 20.7793 60.4941 20.7793C60.1842 20.7793 59.9154 20.8454 59.6875 20.9775C59.4642 21.1051 59.2796 21.2829 59.1338 21.5107C58.988 21.7386 58.8809 22.0007 58.8125 22.2969C58.7441 22.5885 58.71 22.8984 58.71 23.2266ZM67.3301 25.3594L69.0391 19.6035H70.0918L69.8047 21.3262L68.082 27H67.1387L67.3301 25.3594ZM66.3252 19.6035L67.6582 25.3867L67.7676 27H66.7148L64.7119 19.6035H66.3252ZM71.6914 25.3184L72.9834 19.6035H74.5898L72.5938 27H71.541L71.6914 25.3184ZM70.2695 19.6035L71.958 25.291L72.1699 27H71.2266L69.4834 21.3193L69.1963 19.6035H70.2695ZM80.0586 17.0469H81.5898L84.4678 24.7236L87.3389 17.0469H88.8701L85.0693 27H83.8525L80.0586 17.0469ZM79.3613 17.0469H80.8174L81.0703 23.6914V27H79.3613V17.0469ZM88.1113 17.0469H89.5742V27H87.8584V23.6914L88.1113 17.0469ZM91.1328 23.3838V23.2266C91.1328 22.6934 91.2103 22.1989 91.3652 21.7432C91.5202 21.2829 91.7435 20.8841 92.0352 20.5469C92.3314 20.2051 92.6914 19.9408 93.1152 19.7539C93.5436 19.5625 94.0267 19.4668 94.5645 19.4668C95.1068 19.4668 95.5898 19.5625 96.0137 19.7539C96.4421 19.9408 96.8044 20.2051 97.1006 20.5469C97.3968 20.8841 97.6224 21.2829 97.7773 21.7432C97.9323 22.1989 98.0098 22.6934 98.0098 23.2266V23.3838C98.0098 23.917 97.9323 24.4115 97.7773 24.8672C97.6224 25.3229 97.3968 25.7217 97.1006 26.0635C96.8044 26.4007 96.4443 26.665 96.0205 26.8564C95.5967 27.0433 95.1159 27.1367 94.5781 27.1367C94.0358 27.1367 93.5505 27.0433 93.1221 26.8564C92.6982 26.665 92.3382 26.4007 92.042 26.0635C91.7458 25.7217 91.5202 25.3229 91.3652 24.8672C91.2103 24.4115 91.1328 23.917 91.1328 23.3838ZM92.7803 23.2266V23.3838C92.7803 23.7165 92.8145 24.0309 92.8828 24.3271C92.9512 24.6234 93.0583 24.8831 93.2041 25.1064C93.3499 25.3298 93.5368 25.5052 93.7646 25.6328C93.9925 25.7604 94.2637 25.8242 94.5781 25.8242C94.8835 25.8242 95.1478 25.7604 95.3711 25.6328C95.599 25.5052 95.7858 25.3298 95.9316 25.1064C96.0775 24.8831 96.1846 24.6234 96.2529 24.3271C96.3258 24.0309 96.3623 23.7165 96.3623 23.3838V23.2266C96.3623 22.8984 96.3258 22.5885 96.2529 22.2969C96.1846 22.0007 96.0752 21.7386 95.9248 21.5107C95.779 21.2829 95.5921 21.1051 95.3643 20.9775C95.141 20.8454 94.8743 20.7793 94.5645 20.7793C94.2546 20.7793 93.9857 20.8454 93.7578 20.9775C93.5345 21.1051 93.3499 21.2829 93.2041 21.5107C93.0583 21.7386 92.9512 22.0007 92.8828 22.2969C92.8145 22.5885 92.7803 22.8984 92.7803 23.2266ZM101.045 21.0117V27H99.3975V19.6035H100.97L101.045 21.0117ZM103.308 19.5557L103.294 21.0869C103.194 21.0687 103.084 21.055 102.966 21.0459C102.852 21.0368 102.738 21.0322 102.624 21.0322C102.341 21.0322 102.093 21.0732 101.879 21.1553C101.665 21.2327 101.485 21.3467 101.339 21.4971C101.198 21.6429 101.088 21.8206 101.011 22.0303C100.933 22.2399 100.888 22.4746 100.874 22.7344L100.498 22.7617C100.498 22.2969 100.544 21.8662 100.635 21.4697C100.726 21.0732 100.863 20.7246 101.045 20.4238C101.232 20.123 101.464 19.8883 101.742 19.7197C102.025 19.5511 102.351 19.4668 102.72 19.4668C102.82 19.4668 102.927 19.4759 103.041 19.4941C103.16 19.5124 103.248 19.5329 103.308 19.5557ZM107.464 27.1367C106.917 27.1367 106.423 27.0479 105.98 26.8701C105.543 26.6878 105.169 26.4349 104.859 26.1113C104.554 25.7878 104.319 25.4072 104.155 24.9697C103.991 24.5322 103.909 24.0605 103.909 23.5547V23.2812C103.909 22.7025 103.993 22.1784 104.162 21.709C104.331 21.2396 104.565 20.8385 104.866 20.5059C105.167 20.1686 105.522 19.9111 105.933 19.7334C106.343 19.5557 106.787 19.4668 107.266 19.4668C107.794 19.4668 108.257 19.5557 108.653 19.7334C109.05 19.9111 109.378 20.1618 109.638 20.4854C109.902 20.8044 110.098 21.1849 110.226 21.627C110.358 22.069 110.424 22.5566 110.424 23.0898V23.7939H104.709V22.6113H108.797V22.4814C108.788 22.1852 108.729 21.9072 108.619 21.6475C108.514 21.3877 108.353 21.1781 108.134 21.0186C107.915 20.859 107.623 20.7793 107.259 20.7793C106.985 20.7793 106.742 20.8385 106.527 20.957C106.318 21.071 106.142 21.2373 106.001 21.4561C105.86 21.6748 105.75 21.9391 105.673 22.249C105.6 22.5544 105.563 22.8984 105.563 23.2812V23.5547C105.563 23.8783 105.607 24.179 105.693 24.457C105.785 24.7305 105.917 24.9697 106.09 25.1748C106.263 25.3799 106.473 25.5417 106.719 25.6602C106.965 25.7741 107.245 25.8311 107.56 25.8311C107.956 25.8311 108.309 25.7513 108.619 25.5918C108.929 25.4323 109.198 25.2067 109.426 24.915L110.294 25.7559C110.134 25.9883 109.927 26.2116 109.672 26.4258C109.417 26.6354 109.104 26.8063 108.735 26.9385C108.371 27.0706 107.947 27.1367 107.464 27.1367Z" fill="white"/>
<defs>
<filter id="filter0_d_1621_1335" x="0" y="0" width="158" height="56" filterUnits="userSpaceOnUse" color-interpolation-filters="sRGB">
<feFlood flood-opacity="0" result="BackgroundImageFix"/>
<feColorMatrix in="SourceAlpha" type="matrix" values="0 0 0 0 0 0 0 0 0 0 0 0 0 0 0 0 0 0 127 0" result="hardAlpha"/>
<feMorphology radius="1" operator="dilate" in="SourceAlpha" result="effect1_dropShadow_1621_1335"/>
<feOffset dx="3" dy="6"/>
<feGaussianBlur stdDeviation="4"/>
<feComposite in2="hardAlpha" operator="out"/>
<feColorMatrix type="matrix" values="0 0 0 0 0.0958333 0 0 0 0 0.0958333 0 0 0 0 0.0958333 0 0 0 0.14 0"/>
<feBlend mode="normal" in2="BackgroundImageFix" result="effect1_dropShadow_1621_1335"/>
<feBlend mode="normal" in="SourceGraphic" in2="effect1_dropShadow_1621_1335" result="shape"/>
</filter>
</defs>
</svg>
