<svg width="375" height="774" viewBox="0 0 375 774" fill="none" xmlns="http://www.w3.org/2000/svg">
<path opacity="0.21" d="M160.051 -87.9997H245.695C247.171 -86.8482 247.663 -85.6967 248.156 -84.5452C249.632 -79.9392 251.109 -75.3333 252.585 -70.7273C257.015 -56.3336 261.937 -40.7884 265.383 -25.819C267.351 -16.607 269.32 -7.39507 271.289 1.24114C272.766 7.57436 273.75 13.3318 275.227 19.6651C279.164 38.6647 286.055 53.6342 296.884 66.8763C299.837 70.3308 302.79 73.7853 305.743 77.8156C310.665 83.573 315.587 89.3305 320.017 95.088C333.307 114.088 340.69 137.118 343.151 166.481L343.643 172.814C344.627 187.783 346.104 203.328 348.565 218.298C353.979 252.267 357.917 287.388 359.886 325.963C360.378 336.326 361.854 349.568 365.792 362.235C371.206 378.356 380.558 388.719 393.355 391.598C396.801 392.174 399.754 392.749 403.2 392.749C413.536 392.749 423.38 388.719 432.732 380.083C446.021 368.568 455.373 351.296 462.264 328.266C468.17 308.69 468.663 287.963 469.155 270.115C469.647 256.297 470.139 241.904 472.108 227.51C476.538 196.42 488.843 170.511 508.531 151.511C515.914 144.027 524.281 137.693 532.157 131.36L537.571 126.754C571.041 99.6939 566.611 53.0584 563.166 34.6345C562.181 29.4528 559.72 25.4225 557.259 21.3923C550.368 11.0288 540.524 8.15012 531.665 6.99862C524.774 5.84712 517.391 5.84711 512.469 5.84711C509.515 5.84711 507.054 5.84711 504.101 5.84711C501.148 5.84711 498.687 5.84711 495.734 5.84711C494.257 5.84711 492.78 5.84711 491.304 5.84711C483.429 5.84711 477.03 4.69563 470.631 2.96838C444.545 -5.09209 421.903 -22.3645 401.231 -50.0004C394.832 -58.6366 389.418 -70.1515 384.496 -84.5452C383.511 -86.8482 383.511 -87.9997 384.004 -88.5755H424.364C425.841 -87.424 426.825 -85.6967 427.81 -83.3937C434.208 -69 441.099 -58.0608 448.974 -50.0004C464.725 -34.4552 483.429 -26.9705 507.054 -26.9705C510.992 -26.9705 515.422 -26.9705 519.852 -27.5462C532.157 -28.6977 544.954 -29.8492 557.751 -31.5765C566.119 -32.728 574.486 -33.8795 582.854 -36.1824C590.237 -38.4854 594.667 -43.6672 597.62 -52.3034C600.081 -59.7881 601.557 -68.4243 603.034 -79.3635V-81.0907C603.034 -83.9695 603.526 -86.2725 605.003 -87.9997H642.902C644.379 -86.8482 645.363 -85.121 646.348 -83.3937C652.254 -73.606 658.653 -67.2728 666.036 -63.2426C672.927 -59.7881 680.31 -57.4851 687.201 -55.1821H687.693C690.154 -54.6064 692.123 -54.0306 694.584 -52.8791C703.443 -50.0004 712.795 -47.1216 721.655 -42.5157C734.452 -35.6067 742.328 -28.122 747.25 -17.1828C756.109 1.24114 759.062 21.968 756.601 43.2707C752.664 75.5126 739.866 98.5424 717.717 112.936C699.014 125.027 679.818 131.936 664.559 137.118C661.606 138.269 658.653 138.845 656.192 139.996C646.348 142.875 636.504 146.329 627.152 151.511C610.417 160.147 600.081 175.693 596.635 197.571C594.667 207.934 594.667 218.874 594.667 229.237V234.995C594.667 244.782 596.143 255.146 598.604 267.236C605.987 298.903 622.23 324.811 648.317 345.538C662.591 356.477 677.357 365.114 692.615 373.75C696.06 376.053 699.998 377.78 703.443 380.083C717.225 388.143 731.499 397.355 745.281 408.87C751.679 414.052 758.078 420.385 762.016 429.022V536.686C761.523 536.686 760.539 535.535 760.047 534.959C759.555 534.383 759.062 533.808 758.57 533.808C747.742 522.293 738.882 513.081 731.007 504.444C715.749 487.172 702.459 467.597 686.708 444.567C672.927 424.415 661.606 409.446 649.793 396.204C646.84 393.325 643.887 389.871 641.426 386.992C631.09 376.053 620.753 363.962 610.909 351.871C601.065 339.205 592.205 324.235 584.822 306.387C574.978 283.357 570.549 258.024 567.103 236.146L565.626 233.267C564.15 221.752 562.181 210.237 558.736 199.298C555.29 189.511 548.892 183.753 541.016 183.753C539.54 183.753 537.571 183.753 536.094 184.329C532.157 185.48 528.219 187.208 523.789 190.086C510.5 198.723 504.593 213.692 500.656 227.51C495.734 243.631 494.749 260.327 493.273 277.024L492.78 284.509C490.812 315.599 482.936 344.962 470.139 370.871C460.295 390.446 447.99 405.992 433.716 416.355C420.919 425.567 406.645 430.173 390.402 430.173C383.019 430.173 376.62 429.597 368.745 427.87C353.979 424.991 344.135 415.204 339.705 398.507C337.244 388.719 336.752 378.356 336.26 369.719C335.768 361.083 335.768 352.447 335.275 343.811C335.275 334.023 334.783 324.235 334.291 314.448C333.307 293.721 329.861 273.57 323.955 253.994C318.048 234.419 310.173 214.268 299.345 189.511C289.008 166.481 276.703 150.36 260.953 141.148C253.078 136.542 246.187 133.087 239.788 133.087C231.421 133.087 224.53 138.845 217.147 152.663C205.334 173.965 193.029 192.389 180.232 209.662C168.419 225.207 155.129 240.176 135.441 258.6C118.706 274.145 107.385 289.691 99.5101 307.539C98.0336 312.72 95.5726 317.902 93.6038 323.66C90.6506 330.569 87.6973 338.053 84.2519 345.538C71.9468 372.022 56.1963 388.719 36.016 396.78C30.1096 399.083 23.7109 400.81 17.3122 403.113C8.45258 405.992 -0.407074 409.446 -9.26672 413.476C-38.3067 426.143 -56.5182 446.87 -65.3778 477.384C-71.2843 497.535 -72.7609 514.808 -70.2999 531.505C-67.8389 546.474 -62.4246 560.868 -53.0728 573.534C-34.8612 599.443 -19.603 624.776 -6.31348 651.26C-1.39145 660.472 2.54614 667.957 6.97598 674.29C16.3279 686.956 26.1719 693.29 37.9848 693.29H39.4614C56.1963 692.714 71.4546 684.078 87.2051 666.229C99.5101 652.987 106.893 635.139 114.276 617.867L114.768 616.715C125.597 591.382 138.886 570.08 154.637 553.383C170.387 536.686 186.138 519.99 201.888 503.293C210.748 494.081 219.608 484.869 228.467 475.081C246.679 456.082 264.89 446.87 284.579 446.87C286.055 446.87 287.532 446.87 289.008 446.87C302.79 448.021 312.142 452.627 319.525 462.991C324.447 469.9 328.385 477.384 332.322 486.596C334.291 491.778 336.26 496.384 338.229 500.99C344.627 517.687 352.01 534.383 360.378 549.928C369.73 567.201 379.574 578.716 390.894 586.776C400.739 593.685 410.583 597.14 419.934 597.14C426.333 597.14 432.24 595.412 438.638 592.534C445.037 589.655 450.451 586.201 455.373 582.746C458.818 580.443 461.772 578.14 465.217 575.837C473.092 570.08 481.46 563.746 490.319 558.565C503.117 551.08 515.914 547.625 529.204 547.625C534.618 547.625 540.524 548.201 546.431 549.928C571.533 555.686 589.252 578.14 593.682 609.806C595.651 621.321 595.651 634.563 593.682 650.108C591.221 676.593 576.947 695.593 556.275 701.35C544.462 704.229 532.649 704.804 520.836 705.38C515.422 705.38 510.008 705.956 505.086 706.532C502.132 706.532 499.179 706.532 496.226 706.532C491.796 706.532 486.874 706.532 481.952 707.683C460.295 711.138 444.052 722.653 432.732 741.652C428.794 748.561 425.349 756.046 421.903 765.834C420.919 768.137 419.934 769.864 418.458 771.015H366.776C366.284 769.864 365.792 769.288 365.792 768.712C365.792 766.41 365.3 764.107 365.3 761.804C365.3 759.501 364.808 757.198 364.808 754.319C364.808 737.046 365.3 716.319 368.745 696.168C370.714 683.502 368.745 671.411 362.839 659.32C357.425 647.23 352.01 633.988 346.596 617.291C344.627 611.533 342.659 605.2 340.69 599.443C335.276 582.746 329.369 565.474 322.478 549.353C315.587 533.232 309.189 521.717 301.806 512.505C292.946 501.566 282.61 495.808 270.797 495.808C270.305 495.808 269.32 495.808 268.828 495.808C258.492 496.384 248.648 500.414 238.804 507.899C225.022 518.262 212.225 530.353 199.427 541.868L191.06 549.353C178.755 560.292 167.434 573.534 157.098 587.928C145.285 604.624 137.902 624.776 131.503 643.775C121.167 673.714 106.893 700.774 86.713 727.259C78.8377 737.622 70.4702 750.289 67.0248 767.561C66.5326 769.864 66.0403 771.015 64.5638 772.167H5.49939C4.51498 771.015 3.53055 769.864 3.03836 768.137C-1.39148 753.743 -9.26669 741.652 -21.0796 731.289L-26.0016 726.683C-36.3379 717.471 -47.1664 707.683 -56.5182 696.744C-70.7921 680.047 -83.5894 661.624 -95.8945 639.745C-106.723 620.17 -119.028 605.2 -133.302 592.534C-139.701 586.776 -146.099 579.867 -153.482 570.655C-165.295 556.262 -176.616 540.141 -187.444 524.596C-190.89 519.414 -194.335 514.808 -197.78 509.626C-207.625 495.232 -215.008 482.566 -220.422 469.324C-233.219 436.506 -236.172 401.386 -237.649 371.447C-238.141 351.296 -236.172 329.993 -230.758 304.66C-227.313 288.539 -224.359 270.691 -224.852 252.267C-225.836 224.631 -231.743 199.298 -243.063 176.844C-254.384 155.541 -271.611 144.602 -293.76 144.602C-294.745 144.602 -295.729 144.602 -297.206 144.602C-311.479 145.178 -325.753 149.784 -340.027 158.996C-351.84 165.905 -362.669 175.117 -374.974 186.056C-399.584 208.51 -427.639 222.904 -460.125 229.813C-460.617 229.813 -461.109 229.813 -461.601 230.389C-462.586 230.389 -463.57 230.964 -464.062 230.964C-464.555 230.964 -465.047 230.964 -465.539 230.389V170.511C-464.555 169.935 -464.062 169.359 -463.57 169.359C-460.617 169.359 -458.156 168.784 -456.187 168.784C-454.218 168.784 -452.25 168.208 -450.773 168.208C-439.944 167.632 -429.608 165.905 -420.256 162.45C-407.951 158.42 -396.138 151.511 -384.818 145.178C-380.88 142.875 -377.435 141.148 -373.989 138.845C-347.902 124.451 -323.292 117.542 -298.682 117.542C-291.791 117.542 -284.9 118.118 -278.01 119.269C-256.353 122.724 -239.618 135.966 -228.297 160.147C-218.453 179.723 -211.562 203.329 -206.148 233.843C-202.703 252.267 -202.21 268.964 -204.179 284.509C-205.164 295.448 -207.132 305.812 -209.101 316.175C-210.086 320.205 -210.578 323.66 -211.562 327.69C-216.484 352.447 -217.469 374.901 -215.008 397.355C-209.593 443.415 -190.89 478.536 -158.896 500.414C-150.529 506.172 -142.654 509.05 -135.763 509.05C-124.934 509.05 -115.583 502.141 -106.723 488.899C-100.324 479.687 -95.4023 469.324 -90.4802 459.536C-88.5114 456.082 -86.5426 452.051 -85.0659 448.597C-71.7765 423.264 -53.0728 403.689 -29.9392 390.446C-20.0952 385.265 -10.2511 380.659 -0.899261 376.053C5.00717 373.174 10.4214 370.871 16.3279 367.992C43.399 354.174 58.1651 331.72 62.595 298.327C64.5638 282.782 65.5482 266.661 65.0559 250.54C65.0559 244.782 65.5482 238.449 67.0248 232.692C69.4858 221.177 75.3922 214.843 84.7441 213.116C88.6817 211.965 93.1116 211.965 97.0492 211.965H99.018H100.987H102.463C118.706 211.965 133.964 203.328 144.793 188.359C156.606 171.662 162.02 149.784 159.067 127.906C155.621 101.421 147.254 77.2398 139.379 55.9371C137.902 51.9069 136.425 47.8767 134.949 43.8465C130.027 30.0285 124.613 16.2106 121.167 1.24114C115.753 -20.0615 117.229 -36.7582 126.089 -51.7276C131.011 -60.3638 137.41 -67.2728 143.316 -73.606C144.793 -75.3333 146.762 -77.0605 148.238 -78.7878C152.176 -82.2422 155.621 -86.2725 160.051 -87.9997ZM160.051 -90.3027C152.668 -87.9997 148.238 -79.9392 142.824 -74.7575C136.425 -68.4243 130.027 -61.5153 125.105 -52.8791C115.261 -35.6067 115.261 -17.1828 120.183 1.81689C125.105 20.8166 131.996 38.089 138.394 56.5129C146.269 79.5428 154.637 103.148 157.59 128.481C163.004 171.087 136.918 209.662 102.956 209.662C102.463 209.662 101.971 209.662 101.479 209.662C100.002 209.662 98.5258 209.662 97.0492 209.662C92.6193 209.662 88.6817 209.662 84.7441 210.813C74.4078 213.116 68.5014 220.025 65.5482 232.116C64.0716 237.873 63.5794 244.207 63.5794 250.54C63.5794 266.661 63.0872 282.206 61.1183 298.327C56.6885 332.296 40.938 353.599 15.8357 366.265C0.085144 373.75 -15.6653 380.083 -30.4314 388.719C-53.5649 401.386 -72.2687 420.961 -86.5426 447.445C-93.4334 460.688 -100.324 475.081 -108.2 487.748C-116.567 500.99 -125.427 507.323 -135.271 507.323C-142.162 507.323 -149.545 504.444 -157.42 499.263C-189.413 476.809 -207.625 442.264 -213.039 397.355C-215.5 373.75 -214.023 351.296 -209.593 328.266C-206.64 313.872 -203.687 299.478 -201.718 285.085C-199.749 267.812 -200.734 250.54 -203.687 233.843C-208.609 207.359 -214.515 182.026 -225.836 158.996C-237.649 135.39 -254.876 120.997 -277.025 117.542C-284.408 116.391 -291.299 115.815 -298.19 115.815C-324.277 115.815 -349.871 123.875 -374.481 137.118C-389.74 145.178 -404.506 154.966 -420.749 160.147C-430.593 163.602 -440.929 165.329 -450.773 165.905C-455.203 165.905 -459.14 167.056 -463.57 167.056C-463.57 167.056 -463.57 167.056 -464.062 167.056C-465.539 167.056 -467.016 168.208 -468 169.359C-468 190.086 -468 210.813 -468 231.54C-467.016 232.692 -465.539 233.267 -464.555 233.267C-463.078 233.267 -461.601 232.692 -460.125 232.116C-428.624 225.207 -399.584 211.389 -373.497 187.783C-362.669 177.996 -351.348 168.208 -339.043 160.723C-325.753 152.663 -311.479 146.905 -296.713 146.329C-295.729 146.329 -294.745 146.329 -293.268 146.329C-273.088 146.329 -256.353 155.541 -244.54 177.996C-233.219 200.45 -227.313 225.783 -226.82 252.267C-226.328 270.115 -229.281 286.812 -232.727 303.509C-237.649 325.963 -240.602 348.417 -239.618 371.447C-238.141 405.416 -234.696 438.809 -221.898 469.324C-215.992 484.293 -207.625 497.535 -199.257 510.202C-184.491 530.929 -170.709 552.231 -154.959 571.231C-148.56 579.292 -141.669 586.776 -134.286 593.109C-119.52 605.776 -107.707 621.321 -97.371 639.745C-85.5582 660.472 -72.7609 679.472 -57.5026 697.32C-46.6741 709.986 -34.369 720.925 -22.064 731.865C-11.7277 741.077 -3.36026 752.592 1.56177 767.561C2.54617 769.864 4.0228 771.591 5.49939 773.319C25.6797 773.319 45.86 773.319 66.0403 773.319C68.0092 771.591 68.9936 769.864 69.4858 766.985C72.9312 751.44 80.3143 738.774 88.6818 727.834C107.385 703.077 123.136 675.441 133.964 643.775C140.855 624.2 148.238 604.624 159.559 588.504C169.403 574.11 180.724 561.443 193.029 550.504C208.779 536.111 224.038 521.717 240.772 509.05C249.632 502.141 259.476 498.111 269.812 497.535C270.305 497.535 271.289 497.535 271.781 497.535C283.102 497.535 293.438 503.293 301.313 513.656C309.681 524.02 316.08 536.686 321.986 549.928C331.338 571.807 338.229 594.837 346.104 617.867C351.026 632.26 356.44 646.654 362.839 660.472C368.253 671.411 370.222 682.926 368.253 696.168C365.3 715.744 364.808 735.319 364.315 754.895C364.315 760.076 365.3 764.682 365.3 769.288C365.3 771.591 366.284 772.743 367.269 773.894C384.988 773.894 402.707 773.894 420.427 773.894C422.888 772.743 423.872 770.44 424.856 767.561C427.81 759.5 431.255 750.864 435.685 743.955C447.498 723.804 464.233 714.017 483.429 710.562C490.812 709.41 498.687 709.986 506.562 709.411C523.789 707.683 541.016 708.835 558.243 704.229C579.408 698.471 594.667 679.472 597.128 651.26C598.604 637.442 599.096 623.624 597.128 609.806C592.205 577.564 574.486 553.959 548.399 547.625C542.493 545.898 536.587 545.322 531.172 545.322C517.391 545.322 504.593 549.353 491.796 556.837C479.491 563.746 468.663 572.958 456.85 581.019C451.435 585.049 446.021 587.928 440.115 590.807C434.208 593.685 428.302 595.413 422.395 595.413C412.551 595.413 403.692 591.958 394.34 585.049C382.035 576.413 372.683 563.746 364.315 549.353C353.487 529.202 345.12 507.323 336.26 486.02C332.814 477.384 328.385 469.324 322.97 461.839C314.111 449.748 303.282 445.718 290.977 445.142C289.501 445.142 288.024 445.142 286.055 445.142C263.906 445.142 245.202 456.657 228.467 473.93C203.857 499.838 179.247 525.747 154.637 551.656C137.902 569.504 124.613 591.382 114.276 615.564C106.893 633.412 99.0179 651.26 87.2051 664.502C73.9156 679.472 59.1495 690.411 40.938 690.987C40.4458 690.987 39.9536 690.987 39.4614 690.987C27.6485 690.987 17.8045 684.078 9.92923 673.138C3.53058 665.654 -0.407043 658.169 -4.3447 650.108C-18.1264 622.473 -34.369 596.564 -51.5962 572.383C-59.9636 560.292 -65.8701 547.05 -68.3311 531.505C-70.7921 513.081 -68.3311 495.808 -63.409 478.536C-53.565 445.718 -33.8769 427.294 -8.77451 415.779C6.48376 408.87 21.7421 404.84 37.0004 398.507C59.1495 389.295 74.9 370.871 86.2207 346.114C92.1271 334.023 96.5569 320.781 101.971 308.115C110.339 288.539 123.136 273.57 137.41 260.327C153.16 245.358 168.911 229.237 182.2 210.813C195.49 192.965 207.795 173.39 219.116 153.238C226.499 139.996 232.897 134.815 240.28 134.815C246.187 134.815 252.585 137.693 260.461 142.875C277.688 153.238 289.008 169.935 297.868 190.662C307.22 211.389 315.587 232.116 322.478 254.57C328.385 274.145 331.83 293.721 332.815 314.448C333.799 332.872 333.799 351.296 334.783 369.719C335.275 379.507 336.26 389.295 338.721 399.083C342.659 418.082 353.979 427.87 368.745 430.173C375.636 431.324 383.019 432.476 389.91 432.476C405.168 432.476 420.427 428.446 434.208 418.658C449.959 407.143 461.772 391.598 471.616 372.598C484.905 346.114 492.288 316.751 494.749 285.66C496.226 266.661 496.718 247.661 502.624 229.237C507.054 214.268 512.961 201.026 524.774 192.965C528.711 190.662 532.157 188.359 536.586 187.208C538.063 186.632 539.54 186.632 541.016 186.632C548.399 186.632 553.814 191.238 556.767 200.45C560.704 211.965 562.181 224.631 564.15 236.722C567.595 261.479 572.025 285.66 581.869 307.539C589.252 324.235 597.62 339.781 608.448 353.023C620.753 369.144 634.535 382.962 647.824 397.355C661.114 411.749 672.927 428.446 684.247 445.142C698.029 466.445 712.795 487.172 728.546 505.596C737.405 515.959 746.757 525.747 756.109 535.535C757.586 536.686 759.062 539.565 761.031 539.565C761.523 539.565 762.016 539.565 763 538.989C763 502.141 763 465.294 763 429.022C758.57 419.81 752.172 413.476 745.281 407.719C731.991 396.204 717.717 386.992 703.443 378.356C684.74 367.417 666.036 357.629 648.809 343.811C625.183 325.387 607.464 301.206 599.589 267.236C597.128 256.873 595.651 246.51 595.651 235.57C595.651 223.48 595.159 210.813 597.62 198.723C601.065 176.844 610.909 162.45 627.152 153.814C638.473 147.481 651.27 144.027 664.067 139.996C682.279 133.663 700.49 126.178 717.717 115.239C741.343 100.27 753.648 76.0883 757.586 44.4222C760.047 22.5438 757.094 1.81689 748.234 -17.7585C742.327 -31.0007 732.483 -38.4854 721.655 -44.2429C710.826 -50.0004 699.014 -52.8791 687.693 -56.9094C680.31 -59.2123 673.419 -61.5153 666.036 -64.9698C658.161 -69 652.254 -75.909 647.332 -83.9695C645.856 -86.2725 644.379 -88.5755 642.41 -90.3027C629.121 -90.3027 615.831 -90.3027 603.034 -90.3027C600.573 -87.424 600.573 -83.3937 600.081 -79.3635C599.096 -70.1515 597.62 -61.5153 595.159 -52.8791C592.698 -44.8187 588.268 -40.2127 581.869 -38.4854C573.502 -35.6067 565.627 -35.0309 557.259 -33.8795C544.462 -32.1522 531.664 -31.0007 519.359 -29.8492C515.422 -29.2735 510.992 -29.2735 507.054 -29.2735C486.382 -29.2735 467.186 -34.4552 449.959 -51.7276C441.099 -60.9396 434.701 -71.8788 429.286 -84.5452C427.317 -86.2725 426.333 -88.5755 423.872 -90.3027C410.09 -90.3027 396.309 -90.3027 382.527 -90.3027C380.558 -87.9997 381.05 -85.6967 382.035 -83.3937C385.972 -70.7273 391.387 -58.0608 398.77 -47.6974C418.458 -21.7888 441.099 -2.7891 469.155 5.84711C476.046 8.15011 482.936 8.72586 490.319 8.72586C491.796 8.72586 493.273 8.72586 494.749 8.72586C500.163 8.72586 506.07 8.72586 511.484 8.72586C517.883 8.72586 524.282 8.72585 530.68 9.87735C540.032 11.6046 548.892 13.9076 555.29 23.6953C557.751 27.1498 559.72 31.18 560.704 35.786C566.611 66.8763 562.673 103.724 536.094 125.603C526.25 133.663 516.406 141.148 507.054 150.36C486.382 169.935 474.569 196.42 469.647 228.086C467.678 242.479 467.186 256.873 466.694 271.267C466.201 290.842 465.217 310.418 459.803 328.841C453.896 348.993 445.529 366.841 431.255 379.507C422.395 387.568 413.044 391.598 402.707 391.598C399.754 391.598 396.309 391.022 393.355 390.446C380.558 386.992 372.191 376.628 367.269 362.235C363.331 350.72 361.854 338.629 361.362 326.538C359.393 290.266 355.948 254.57 350.042 218.298C347.581 201.026 346.104 183.753 345.12 166.481C343.151 139.421 336.26 114.663 321.494 93.9365C314.111 84.1488 306.235 74.9368 298.36 65.7249C288.024 52.4827 281.133 37.5132 277.195 19.6651C273.75 4.69562 271.289 -10.8496 267.844 -25.819C262.922 -45.9701 256.523 -64.9698 250.617 -85.121C249.632 -87.424 248.156 -89.1512 246.187 -90.3027C217.639 -90.3027 188.599 -90.3027 160.051 -90.3027Z" fill="#5200FF"/>
</svg>
